<svg width="33" height="139" viewBox="0 0 33 139" fill="none" xmlns="http://www.w3.org/2000/svg">
<g clip-path="url(#clip0)">
<path d="M33 138.092H5.07692C2.27301 138.092 -2.45126e-07 135.819 0 133.015L1.11848e-05 5.07692C1.14299e-05 2.27301 2.27303 -2.45129e-07 5.07692 0L33 2.44111e-06V138.092Z" fill="#66C05D"/>
<path d="M15.9911 108.581C16.986 108.581 17.8583 108.756 18.6079 109.108C19.3575 109.46 19.9359 109.964 20.3432 110.622C20.7504 111.274 20.954 112.023 20.954 112.87C20.954 113.708 20.7527 114.455 20.3501 115.112C19.9475 115.77 19.3737 116.278 18.6287 116.639C17.8791 117 17.0184 117.183 16.0466 117.188H15.5469C14.552 117.188 13.6774 117.009 12.9231 116.653C12.1642 116.292 11.5835 115.785 11.1809 115.133C10.7737 114.476 10.5701 113.727 10.5701 112.884C10.5701 112.042 10.7737 111.295 11.1809 110.642C11.5835 109.985 12.1642 109.478 12.9231 109.122C13.6774 108.761 14.5497 108.581 15.5399 108.581H15.9911ZM15.533 110.691C14.4733 110.691 13.6681 110.881 13.1175 111.26C12.5668 111.64 12.2915 112.181 12.2915 112.884C12.2915 113.583 12.5645 114.122 13.1105 114.501C13.6519 114.881 14.4478 115.073 15.4983 115.078H15.9911C17.023 115.078 17.8235 114.888 18.3927 114.508C18.9619 114.129 19.2465 113.583 19.2465 112.87C19.2465 112.172 18.9735 111.635 18.4274 111.26C17.8768 110.885 17.0762 110.695 16.0258 110.691H15.533ZM14.9152 100.966V103.375H20.8152V105.388H14.9152V107.755H13.3049V100.966H14.9152ZM15.5191 96.0102C15.2553 96.0102 15.0517 96.0985 14.9083 96.2742C14.7602 96.4453 14.6861 96.6905 14.6861 97.0098C14.6861 97.3383 14.7556 97.6069 14.8944 97.815C15.0286 98.0186 15.2206 98.1207 15.4705 98.1207V100.127C14.7903 100.127 14.2373 99.8443 13.8116 99.2797C13.3858 98.7152 13.173 97.9932 13.173 97.1139C13.173 96.1468 13.3627 95.3878 13.7422 94.8374C14.1216 94.282 14.6607 94.0043 15.3595 94.0043C15.6926 94.0043 16.0004 94.1063 16.2826 94.3099C16.5603 94.5089 16.7824 94.7912 16.949 95.1568C17.2497 94.3003 17.8305 93.8723 18.6912 93.8723C19.3807 93.8723 19.9313 94.1688 20.3432 94.7608C20.7504 95.3487 20.954 96.1331 20.954 97.1139C20.954 98.0257 20.7411 98.7751 20.3154 99.363C19.8897 99.9504 19.3159 100.244 18.594 100.244V98.2385C18.8485 98.2385 19.0544 98.1252 19.2118 97.8983C19.3691 97.6714 19.4478 97.3754 19.4478 97.0098C19.4478 96.6534 19.3645 96.3757 19.1979 96.1767C19.0313 95.9782 18.8138 95.8787 18.5454 95.8787C18.2169 95.8787 17.9832 95.9731 17.8443 96.163C17.7009 96.3529 17.6292 96.6372 17.6292 97.0169V98.1065H16.3243V96.9474C16.3057 96.3229 16.0374 96.0102 15.5191 96.0102ZM15.5052 90.5063V89.069C15.5052 88.4212 15.614 87.8521 15.8315 87.3617C16.0489 86.8712 16.3613 86.4965 16.7685 86.2371C17.1711 85.9736 17.6408 85.8416 18.1775 85.8416C18.9688 85.8416 19.6074 86.1356 20.0933 86.723C20.5746 87.3063 20.8152 88.1024 20.8152 89.1107V92.5188H13.3049V90.5063H15.5052ZM20.8152 82.6488V84.6546H13.3049V82.6488H20.8152ZM17.1156 90.5063H19.2118V89.0832C19.2118 88.6852 19.1192 88.3796 18.9341 88.1669C18.749 87.9541 18.4968 87.8475 18.1775 87.8475C17.8536 87.8475 17.5968 87.9516 17.4071 88.1598C17.2127 88.3684 17.1156 88.6761 17.1156 89.0832V90.5063ZM20.8152 80.7469H13.3049V77.6094C13.3049 76.5869 13.4854 75.8025 13.8463 75.2562C14.2072 74.7105 14.7255 74.4373 15.4011 74.4373C15.7481 74.4373 16.0605 74.5531 16.3381 74.7846C16.6112 75.011 16.8217 75.3446 16.9698 75.7837C17.0716 75.2471 17.2729 74.8262 17.5736 74.5206C17.8698 74.2109 18.2354 74.0556 18.6704 74.0556C19.3691 74.0556 19.9013 74.3196 20.2668 74.847C20.6324 75.37 20.8152 76.131 20.8152 77.1306V80.7469ZM17.6986 78.741H19.2118V77.1235C19.2118 76.4158 18.9642 76.0614 18.4691 76.0614C17.9647 76.0614 17.7079 76.3996 17.6986 77.0748V78.741ZM16.352 78.741V77.4982C16.3428 76.7951 16.116 76.4432 15.6718 76.4432C15.3988 76.4432 15.2045 76.5407 15.0887 76.7352C14.973 76.9245 14.9152 77.2159 14.9152 77.6094V78.741H16.352ZM16.9906 69.5995C16.2456 69.5995 15.5816 69.4559 14.9985 69.169C14.4154 68.8822 13.9643 68.4704 13.645 67.9338C13.3257 67.3921 13.1661 66.7651 13.1661 66.0528C13.1661 65.0389 13.4761 64.2129 14.0962 63.5748C14.7163 62.9315 15.5584 62.5726 16.6227 62.499L17.1364 62.4847C18.2886 62.4847 19.2141 62.8066 19.9128 63.4499C20.607 64.0926 20.954 64.9557 20.954 66.0386C20.954 67.1215 20.607 67.9866 19.9128 68.6344C19.2187 69.2777 18.2747 69.5995 17.0808 69.5995H16.9906ZM17.1364 67.5936C17.849 67.5936 18.395 67.4591 18.7745 67.191C19.1493 66.9225 19.3367 66.5387 19.3367 66.0386C19.3367 65.5527 19.1516 65.1735 18.7814 64.9003C18.4066 64.6272 17.8097 64.4906 16.9906 64.4906C16.2919 64.4906 15.7505 64.6272 15.3664 64.9003C14.9823 65.1735 14.7903 65.5573 14.7903 66.0528C14.7903 66.5432 14.9823 66.9225 15.3664 67.191C15.7459 67.4591 16.3358 67.5936 17.1364 67.5936ZM19.3367 54.5861C19.3367 54.2154 19.2349 53.9149 19.0313 53.6834C18.8277 53.4524 18.557 53.3321 18.2192 53.3224V51.4414C18.7282 51.446 19.1956 51.5851 19.6213 51.8582C20.0424 52.1309 20.3709 52.506 20.607 52.9823C20.8383 53.4544 20.954 53.9773 20.954 54.551C20.954 55.6248 20.6139 56.4716 19.9337 57.0915C19.2488 57.7114 18.3048 58.0216 17.1017 58.0216H16.9698C15.8129 58.0216 14.8898 57.714 14.2003 57.0986C13.5108 56.4833 13.1661 55.6385 13.1661 54.5652C13.1661 53.6255 13.4344 52.8736 13.9712 52.3091C14.5034 51.7399 15.2137 51.4506 16.1022 51.4414V53.3224C15.7135 53.3321 15.3988 53.4524 15.1581 53.6834C14.9129 53.9149 14.7903 54.2205 14.7903 54.5998C14.7903 55.0668 14.9615 55.4212 15.3039 55.6619C15.6417 55.8979 16.1924 56.0157 16.9559 56.0157H17.1641C17.9369 56.0157 18.4922 55.8979 18.83 55.6619C19.1678 55.4258 19.3367 55.0668 19.3367 54.5861ZM20.8152 45.9442C20.6347 46.0367 20.4103 46.1038 20.1419 46.1455C20.6833 46.6313 20.954 47.263 20.954 48.0404C20.954 48.7761 20.7411 49.3869 20.3154 49.8728C19.8897 50.3541 19.3529 50.5947 18.7051 50.5947C17.9091 50.5947 17.2983 50.3009 16.8726 49.7132C16.4469 49.1209 16.2317 48.2671 16.2271 47.1519V46.2287H15.7967C15.4497 46.2287 15.1721 46.319 14.9638 46.4994C14.7556 46.6753 14.6515 46.9552 14.6515 47.3393C14.6515 47.6771 14.7325 47.9432 14.8944 48.1376C15.0564 48.3273 15.2785 48.4222 15.5608 48.4222V50.4281C15.1258 50.4281 14.7232 50.2939 14.353 50.0256C13.9828 49.7571 13.6936 49.3777 13.4854 48.8872C13.2725 48.3967 13.1661 47.846 13.1661 47.2352C13.1661 46.3097 13.3998 45.5763 13.8671 45.0349C14.3298 44.4889 14.9823 44.2158 15.8245 44.2158H19.0799C19.7925 44.2112 20.3316 44.1117 20.6972 43.9174H20.8152V45.9442ZM19.42 47.6031C19.42 47.3069 19.3552 47.0339 19.2256 46.784C19.0914 46.5342 18.9133 46.3491 18.6912 46.2287H17.4001V46.9784C17.4001 47.9826 17.7472 48.517 18.4413 48.5818L18.5593 48.5887C18.8092 48.5887 19.0151 48.5008 19.177 48.3249C19.339 48.1491 19.42 47.9085 19.42 47.6031ZM13.3049 38.1493V36.1433H20.8152V38.1493H16.1785L20.8152 40.662V42.6749H13.3049V40.662H17.9346L13.3049 38.1493ZM10.2578 36.9693C10.8732 36.9693 11.3706 37.1915 11.7501 37.6357C12.1295 38.0752 12.3192 38.6537 12.3192 39.3709C12.3192 40.0882 12.1318 40.6689 11.757 41.1132C11.3822 41.5528 10.8825 41.7726 10.2578 41.7726V40.3497C10.5493 40.3497 10.776 40.264 10.938 40.0928C11.0953 39.917 11.174 39.6764 11.174 39.3709C11.174 39.0702 11.0953 38.8341 10.938 38.663C10.776 38.4918 10.5493 38.4061 10.2578 38.4061V36.9693ZM14.9152 28.3762V30.7848H20.8152V32.7977H14.9152V35.1647H13.3049V28.3762H14.9152ZM20.954 24.3504C20.954 25.4517 20.6162 26.3494 19.9406 27.0436C19.265 27.733 18.3649 28.0778 17.2405 28.0778H17.0462C16.2919 28.0778 15.6186 27.932 15.0263 27.6405C14.4294 27.3489 13.9712 26.9371 13.6519 26.405C13.328 25.8682 13.1661 25.2573 13.1661 24.5725C13.1661 23.5452 13.49 22.7378 14.1378 22.1501C14.7857 21.5577 15.7042 21.2616 16.8934 21.2616H17.7125V26.044C18.203 25.9792 18.5963 25.7849 18.8925 25.461C19.1886 25.1324 19.3367 24.7183 19.3367 24.2185C19.3367 23.4457 19.0568 22.8418 18.4968 22.4069L19.6005 21.4213C20.0262 21.722 20.3594 22.1292 20.6 22.6429C20.836 23.1565 20.954 23.7257 20.954 24.3504ZM14.7903 24.5795C14.7903 24.9774 14.9245 25.3013 15.1929 25.5512C15.4612 25.7965 15.8453 25.9538 16.3451 26.0232V23.2329H16.1855C15.7412 23.2421 15.3988 23.3624 15.1581 23.5938C14.9129 23.8252 14.7903 24.1537 14.7903 24.5795Z" fill="white"/>
</g>
<defs>
<clipPath id="clip0">
<rect width="33" height="138.092" fill="white"/>
</clipPath>
</defs>
</svg>
